 <svg  version="1.0" xmlns="http://www.w3.org/2000/svg"  width="300.000000pt" height="250.000000pt" viewBox="0 0 300.000000 250.000000"  preserveAspectRatio="xMidYMid meet">  <g transform="translate(0.000000,250.000000) scale(0.100000,-0.100000)" fill="#26a269" stroke="none"> <path d="M1292 1865 c2 -267 3 -485 3 -485 -1 0 -106 106 -235 235 -129 129 -239 235 -245 235 -13 0 -155 -142 -155 -155 0 -6 142 -152 315 -325 l316 -316 -1 -527 c0 -465 1 -527 15 -527 10 0 15 10 15 33 1 29 1 775 0 953 l0 72 -316 316 -316 317 64 65 64 66 231 -231 c231 -231 251 -246 268 -203 4 9 7 223 7 475 l0 457 148 0 148 0 0 -166 c0 -156 6 -194 31 -194 4 0 43 34 86 75 44 41 82 75 86 75 3 0 32 -27 63 -60 51 -53 56 -62 45 -77 -8 -9 -80 -83 -161 -164 l-148 -148 0 -68 c-4 -536 -3 -563 25 -563 7 0 114 102 238 226 l226 227 66 -64 67 -65 -282 -279 c-155 -154 -295 -297 -311 -317 l-30 -37 0 -328 c-1 -404 -1 -393 11 -393 6 0 10 126 10 358 l0 357 320 320 320 320 -82 82 -83 83 -237 -237 -238 -238 0 300 0 300 171 171 171 172 -82 82 -82 83 -89 -89 -89 -89 0 188 0 187 -175 0 -176 0 3 -485z"/> <path d="M126 1277 c3 -10 9 -15 12 -12 3 3 0 11 -7 18 -10 9 -11 8 -5 -6z"/> </g> </svg> 